# xmcd
#
# Track frame offsets: 
#        150
#        13137
#        56497
#        74650
#        84927
#        104177
#        119175
#        138130
#        158700
#        172207
#        191065
#        205040
#        216930
#        228630
#        242080
#        260002
#        278742
#        296085
#        313260
#        328102
#
# Disc length: 4559 seconds
#
# Revision: 4
# Processed by: cddbd v1.4PL0 Copyright (c) Steve Scherf et al.
# Submitted via: ExactAudioCopy v0.95a3
#
DISCID=4611cd14
DTITLE=Kenny Burrell - Guitar Forms
DYEAR=1965
DGENRE=Jazz
TTITLE0=Downstairs [master take]
TTITLE1=Lotus Land
TTITLE2=Terrace Theme [master take]
TTITLE3=Excerpt From "Prelude No. 2"
TTITLE4=Moon And Sand
TTITLE5=Loie
TTITLE6=Greensleeves
TTITLE7=Last Night When We Were Young
TTITLE8=Breadwinner [master take]
TTITLE9=Downstairs [alternate take 1]
TTITLE10=Downstairs [alternate take 2]
TTITLE11=Downstairs [alternate take 3]
TTITLE12=Downstairs [alternate take 4]
TTITLE13=Terrace Theme [alternate take 1]
TTITLE14=Terrace Theme [alternate take 2]
TTITLE15=Terrace Theme [alternate take 3]
TTITLE16=Breadwinner [alternate take 1]
TTITLE17=Breadwinner [alternate take 2]
TTITLE18=Breadwinner [alternate take 3]
TTITLE19=Breadwinner [alternate take 4]
EXTD=\n YEAR: 1965
EXTT0=
EXTT1=
EXTT2=
EXTT3=
EXTT4=
EXTT5=
EXTT6=
EXTT7=
EXTT8=
EXTT9=
EXTT10=
EXTT11=
EXTT12=
EXTT13=
EXTT14=
EXTT15=
EXTT16=
EXTT17=
EXTT18=
EXTT19=
PLAYORDER=
